<!-- Generated by IcoMoon.io -->
<svg version="1.1" xmlns="http://www.w3.org/2000/svg" width="32" height="32" viewBox="0 0 32 32">
<title>Shape-187</title>
<path fill="#1ab798" d="M16 0c-8.837 0-16 7.163-16 16s7.163 16 16 16c8.837 0 16-7.163 16-16v0c-0.009-8.833-7.167-15.991-15.999-16h-0.001zM8.14 28.782c0.548-0.17 1.178-0.268 1.83-0.268 0.175 0 0.347 0.007 0.518 0.021l-0.023-0.001h1.511c0 0 0.001 0 0.002 0 0.17 0 0.32-0.088 0.406-0.22l0.001-0.002 1.732-2.533c0.051-0.077 0.082-0.171 0.082-0.272 0-0.023-0.002-0.046-0.005-0.068l0 0.003c0.523 0.274 1.141 0.438 1.797 0.444h0.002c0.674-0.008 1.306-0.178 1.862-0.473l-0.022 0.011c-0.004 0.023-0.006 0.050-0.006 0.078 0 0.104 0.033 0.2 0.089 0.279l-0.001-0.001 1.778 2.542c0.090 0.129 0.238 0.213 0.406 0.213h1.808c0.14-0.014 0.302-0.022 0.466-0.022 0.546 0 1.071 0.089 1.561 0.255l-0.034-0.010c-2.245 1.413-4.976 2.251-7.902 2.251-2.908 0-5.623-0.828-7.922-2.261l0.063 0.037zM21.043 11.92c0.563 1.947 1.046 5.378-0.056 6.284-0.108 0.093-0.176 0.23-0.178 0.382v0c0 2.782-2.267 6.311-4.814 6.311s-4.815-3.529-4.815-6.311c0-0.001 0-0.003 0-0.004 0-0.069-0.015-0.135-0.042-0.194l0.001 0.003c-0.448-1.028-0.708-2.226-0.708-3.485 0-1.051 0.182-2.059 0.515-2.996l-0.019 0.062c0.024-0.055 0.037-0.119 0.038-0.186v-0c0-1.653 0.296-2.907 4.026-2.907 0.001 0 0.001 0 0.002 0 0.097 0 0.187-0.030 0.261-0.081l-0.002 0.001c0.848-0.58 1.883-0.944 3.001-0.995l0.013-0c0.032-0.001 0.069-0.002 0.106-0.002 0.976 0 1.84 0.481 2.366 1.22l0.006 0.009c0.31 0.444 0.495 0.994 0.495 1.588 0 0.356-0.066 0.696-0.188 1.009l0.006-0.019c-0.020 0.052-0.032 0.113-0.032 0.176 0 0.048 0.007 0.095 0.020 0.139l-0.001-0.004zM24.8 28.151c-0.66-0.409-1.46-0.652-2.317-0.652-0.206 0-0.408 0.014-0.606 0.041l0.023-0.003h-1.544l-1.627-2.329c-0.063-0.082-0.149-0.144-0.249-0.177l-0.004-0.001c1.907-1.458 3.166-3.679 3.32-6.199l0.001-0.024c1.587-1.662 0.518-6.009 0.244-7.004 0.12-0.353 0.189-0.759 0.189-1.182 0-0.804-0.251-1.55-0.679-2.163l0.008 0.012c-0.715-1.006-1.876-1.655-3.188-1.655-0.037 0-0.074 0-0.111 0.002l0.005-0c-1.274 0.041-2.449 0.433-3.441 1.082l0.025-0.016c-4.215 0.044-4.857 1.84-4.876 3.804-0.344 0.959-0.543 2.066-0.543 3.22 0 1.366 0.279 2.667 0.783 3.849l-0.024-0.064c0.12 2.594 1.395 4.867 3.319 6.332l0.021 0.015c-0.095 0.035-0.174 0.097-0.228 0.176l-0.001 0.002-1.585 2.32h-1.244c-0.19-0.023-0.41-0.036-0.633-0.036-0.959 0-1.861 0.244-2.647 0.673l0.029-0.014c-3.788-2.758-6.222-7.178-6.222-12.167 0-8.288 6.718-15.006 15.006-15.006s15.006 6.718 15.006 15.006c0 4.983-2.429 9.399-6.167 12.128l-0.043 0.030z"></path>
</svg>
