<!-- Generated by IcoMoon.io -->
<svg version="1.1" xmlns="http://www.w3.org/2000/svg" width="32" height="32" viewBox="0 0 32 32">
<title>Shape-153</title>
<path fill="#1ab798" d="M18.673 9.156c-0.002-1.475-1.198-2.67-2.673-2.67s-2.673 1.197-2.673 2.673 1.197 2.673 2.673 2.673c0 0 0 0 0 0v0c1.477-0.002 2.673-1.199 2.673-2.676v0zM14.396 9.156c0.005-0.88 0.719-1.591 1.6-1.591 0.884 0 1.6 0.716 1.6 1.6s-0.716 1.6-1.6 1.6v0c-0.883-0.005-1.596-0.721-1.596-1.604 0-0.002 0-0.003 0-0.005v0zM15.987 24.969l0.415-0.507c0.291-0.356 7.105-8.738 7.081-14.222-0.018-4.427-3.378-8.027-7.483-8.027-4.126 0-7.483 3.6-7.483 8.027 0 5.484 6.769 13.867 7.057 14.222zM16 3.28c3.521 0 6.4 3.12 6.414 6.96 0.019 4.364-4.94 11.102-6.424 13.022-1.478-1.929-6.404-8.658-6.404-13.022 0-3.84 2.877-6.96 6.414-6.96zM4.388 19.342l-4.129 7.511c-0.167 0.296-0.265 0.649-0.265 1.026 0 1.171 0.95 2.121 2.121 2.121 0.002 0 0.004 0 0.006 0h27.756c0.001 0 0.003 0 0.004 0 1.172 0 2.122-0.95 2.122-2.122 0-0.376-0.098-0.729-0.269-1.036l0.006 0.011-4.129-7.511c-0.37-0.661-1.064-1.1-1.862-1.102h-3.87c-0.297 0-0.538 0.241-0.538 0.538s0.241 0.538 0.538 0.538h3.87c0.001 0 0.003 0 0.005 0 0.394 0 0.738 0.216 0.919 0.537l0.003 0.005 4.128 7.511c0.083 0.147 0.132 0.323 0.132 0.51 0 0.582-0.472 1.054-1.054 1.054-0.001 0-0.002 0-0.003 0h-27.756c-0.001 0-0.002 0-0.003 0-0.582 0-1.054-0.472-1.054-1.054 0-0.187 0.049-0.363 0.134-0.516l-0.003 0.005 4.128-7.511c0.183-0.326 0.527-0.542 0.92-0.542 0.002 0 0.004 0 0.006 0h3.87c0.297 0 0.538-0.241 0.538-0.538s-0.241-0.538-0.538-0.538h-3.87c-0.798 0.002-1.492 0.442-1.857 1.091l-0.006 0.011z"></path>
</svg>
