<!-- Generated by IcoMoon.io -->
<svg version="1.1" xmlns="http://www.w3.org/2000/svg" width="32" height="32" viewBox="0 0 32 32">
<title>Shape-141</title>
<path fill="#1ab798" d="M12.899 31.404h13.429c0.065 0.004 0.141 0.007 0.218 0.007 1.085 0 2.059-0.475 2.725-1.229l0.003-0.004c0.455-0.651 0.728-1.46 0.728-2.332 0-0.171-0.011-0.34-0.031-0.506l0.002 0.020c0.612-0.793 0.98-1.8 0.98-2.893 0-0.055-0.001-0.109-0.003-0.163l0 0.008c0.002-0.038 0.003-0.082 0.003-0.127 0-0.398-0.075-0.779-0.211-1.13l0.007 0.021c0.567-0.687 0.928-1.564 0.977-2.523l0-0.010c0.008-0.097 0.013-0.21 0.013-0.324 0-0.64-0.143-1.247-0.399-1.79l0.011 0.026c0.397-0.611 0.636-1.357 0.644-2.158l0-0.002c0.062-3.049-2.72-4.364-4.652-4.507l-4.061 0.071c0.074-0.159 0.149-0.294 0.233-0.421l-0.008 0.012c0.964-1.281 1.737-2.774 2.238-4.385l0.028-0.103c1.201-3.564-1.848-6.044-1.978-6.151l-0.22-0.133-0.069-0.036c-0.318-0.129-0.688-0.205-1.075-0.205-0.007 0-0.015 0-0.022 0h0.001c-0.010-0-0.023-0-0.035-0-0.484 0-0.938 0.132-1.327 0.362l0.012-0.007c-0.893 0.609-1.48 1.611-1.511 2.751l-0 0.005c-0.278 2.373-2.292 4.533-3.436 5.431-0.158 0.124-0.285 0.222-0.369 0.293-0.82 0.927-1.494 2.007-1.971 3.188l-0.027 0.075-0.238 0.498c-0.498 0.857-1.072 1.596-1.733 2.248l-0.001 0.001c-0.285 0.009-0.671 0.009-1.019 0.018-0.122-0.754-0.714-1.339-1.462-1.448l-0.009-0.001h-7.225c-1.133 0.074-2.029 0.993-2.065 2.13l-0 0.003v13.538c0.049 1.052 0.913 1.887 1.973 1.887 0.032 0 0.064-0.001 0.096-0.002l-0.005 0h10.833zM10.011 16.338l0.38-0.009c0.493 0 1.232-0.018 1.605-0.018l0.186-0.009 0.141-0.124c0.827-0.77 1.532-1.658 2.091-2.639l0.029-0.055 0.243-0.507c0.458-1.12 1.044-2.086 1.758-2.942l-0.014 0.018c0.075-0.062 0.187-0.151 0.327-0.258 0.35-0.276 3.436-2.791 3.822-6.133 0.006-0.81 0.398-1.527 1.001-1.978l0.007-0.005c0.231-0.134 0.507-0.214 0.803-0.214 0.008 0 0.016 0 0.023 0h-0.001c0.002 0 0.003 0 0.005 0 0.24 0 0.471 0.042 0.684 0.12l-0.014-0.004 0.089 0.053c0.284 0.24 2.55 2.231 1.619 4.996-0.497 1.606-1.217 3.003-2.139 4.241l0.026-0.037c-0.307 0.358-0.494 0.827-0.494 1.34 0 0.149 0.016 0.294 0.046 0.434l-0.002-0.014 0.129 0.276 0.412 0.027 4.541-0.080c1.284 0.098 3.7 0.942 3.649 3.449 0 0.001 0 0.001 0 0.002 0 0.692-0.234 1.329-0.627 1.836l0.005-0.007-0.22 0.284 0.185 0.302c0.255 0.436 0.406 0.96 0.406 1.519 0 0.097-0.005 0.193-0.013 0.288l0.001-0.012c-0.034 0.822-0.371 1.559-0.901 2.108l0.001-0.001-0.279 0.249 0.156 0.347c0.155 0.298 0.246 0.65 0.246 1.024 0 0.025-0 0.049-0.001 0.073l0-0.004c0.006 0.077 0.010 0.167 0.010 0.257 0 0.87-0.324 1.665-0.857 2.271l0.003-0.004-0.212 0.196 0.054 0.284c0.033 0.169 0.052 0.364 0.052 0.563 0 0.65-0.201 1.253-0.544 1.75l0.007-0.010c-0.473 0.49-1.135 0.794-1.868 0.794-0.088 0-0.175-0.004-0.262-0.013l0.011 0.001c-0.248 0.009-0.61 0.009-1.060 0.009l-3.577-0.009h-11.868v-14.667c0.033 0.098 0.063 0.196 0.089 0.276zM1.033 29.52v-13.538c0.035-0.568 0.471-1.025 1.026-1.093l0.006-0.001h6.709v15.476h-6.709c-0.026 0.003-0.056 0.004-0.087 0.004-0.489 0-0.891-0.369-0.944-0.844l-0-0.004z"></path>
</svg>
