<!-- Generated by IcoMoon.io -->
<svg version="1.1" xmlns="http://www.w3.org/2000/svg" width="27" height="32" viewBox="0 0 27 32">
<title>Shape-315</title>
<path fill="#1ab798" d="M0.744 27.937h2.215c0.055 0.049 0.103 0.105 0.142 0.167l0.002 0.003v3.372c0 0.287 0.233 0.52 0.52 0.52s0.52-0.233 0.52-0.52v0-3.372c-0.054-0.076-0.127-0.134-0.212-0.169l-0.003-0.001h2.215c0.007 0 0.015 0 0.023 0 0.29 0 0.528-0.219 0.56-0.5l0-0.003v-6.224h3.103v0.825c0 0.287 0.072 0.726 0.359 0.726h3.381c2.915-0.109 5.237-2.499 5.237-5.43s-2.322-5.321-5.227-5.43l-0.010-0h-3.381c-0.287 0-0.359 0.404-0.359 0.682v0.87h-3.686c-5.148 0-6.144 2.664-6.144 4.278v9.704c0.104 0.295 0.381 0.503 0.706 0.503 0.013 0 0.027-0 0.040-0.001l-0.002 0zM10.87 12.933h2.7c2.345 0.109 4.205 2.037 4.205 4.399s-1.86 4.29-4.195 4.399l-0.010 0h-2.7v-8.798zM9.83 20.179h-3.103v-5.695h3.103v5.695zM1.031 17.731c0-2.054 1.561-3.157 4.664-3.265v12.439h-4.664v-9.175zM14.242 10.35h2.7c0.018 0.002 0.039 0.003 0.060 0.003 0.287 0 0.528-0.198 0.594-0.465l0.001-0.004v-0.574h3.103v5.973c0 0.287 0 0.753 0.287 0.753h2.215c-0.018 0 0.081-0.135 0.081-0.072v15.516c0 0.287 0.233 0.52 0.52 0.52v0c0.283-0.001 0.511-0.23 0.511-0.513 0-0.003-0-0.005-0-0.008v0-15.516c0-0.063-0.126 0.072-0.143 0.072h2.215c0.305-0.108 0.521-0.394 0.521-0.73 0-0.008-0-0.016-0-0.025l0 0.001v-9.695c0-1.614-0.771-4.556-5.919-4.556h-3.39v-0.592c-0.068-0.258-0.299-0.445-0.574-0.445-0.028 0-0.056 0.002-0.084 0.006l0.003-0h-2.7c-0.029-0.001-0.062-0.001-0.096-0.001-2.858 0-5.176 2.317-5.176 5.176s2.317 5.176 5.176 5.176c0.034 0 0.068-0 0.101-0.001l-0.005 0zM25.874 5.587v9.417h-4.143v-12.691c2.583 0.117 4.143 1.211 4.143 3.274zM20.7 2.072v6.206h-3.103v-6.206h3.103zM14.242 1.031h2.314v8.278h-2.314c-0.026 0.001-0.056 0.001-0.086 0.001-2.286 0-4.14-1.854-4.14-4.14s1.854-4.14 4.14-4.14c0.030 0 0.061 0 0.091 0.001l-0.005-0z"></path>
</svg>
