<!-- Generated by IcoMoon.io -->
<svg version="1.1" xmlns="http://www.w3.org/2000/svg" width="23" height="32" viewBox="0 0 23 32">
<title>Shape-375</title>
<path fill="#1ab798" d="M21.12 18.628h-0.198c-0.505 0.046-0.962 0.218-1.351 0.483l0.010-0.006v-0.036c0-0.007 0-0.015 0-0.023 0-1.252-0.988-2.273-2.227-2.326l-0.005-0h-0.207c-0.524 0.066-0.994 0.252-1.396 0.529l0.011-0.007v-0.090c0.001-0.020 0.001-0.043 0.001-0.067 0-1.228-0.968-2.229-2.183-2.282l-0.005-0h-0.198c-0.539 0.063-1.025 0.25-1.443 0.529l0.012-0.007v-5.561c0.001-0.019 0.001-0.042 0.001-0.065 0-1.138-0.923-2.061-2.061-2.061-0.029 0-0.058 0.001-0.086 0.002l0.004-0h-0.207c-0.036-0.002-0.079-0.003-0.122-0.003-1.212 0-2.207 0.932-2.307 2.118l-0.001 0.008v14.317l-2.061-2.079c-0.401-0.4-0.955-0.647-1.566-0.648h-0c-0.617 0-1.176 0.248-1.584 0.648l-0.135 0.135c-0.411 0.398-0.666 0.954-0.666 1.571 0 0.002 0 0.003 0 0.005v-0c-0 0.003-0 0.007-0 0.011 0 0.607 0.252 1.155 0.656 1.545l0.001 0.001 5.525 6.065c0.351 0.409 0.868 0.666 1.446 0.666 0.001 0 0.002 0 0.003 0h12.697c0.003 0 0.008 0 0.012 0 0.881 0 1.621-0.602 1.83-1.418l0.003-0.013 0.072-0.009v-9.629c-0.009-1.259-1.020-2.28-2.274-2.304l-0.002-0zM22.425 30.137c-0.010 0.499-0.418 0.9-0.919 0.9-0.009 0-0.018-0-0.028-0l0.001 0h-12.697c-0.003 0-0.005 0-0.008 0-0.288 0-0.546-0.129-0.719-0.332l-0.001-0.001-5.561-6.101c-0.233-0.223-0.378-0.537-0.378-0.884 0-0.002 0-0.005 0-0.007v0c0.002-0.349 0.146-0.664 0.378-0.891l0-0 0.144-0.135c0.241-0.234 0.571-0.378 0.934-0.378 0.001 0 0.001 0 0.002 0h-0c0.002 0 0.003 0 0.005 0 0.34 0 0.645 0.145 0.858 0.377l0.001 0.001 3.681 3.654v-16.576c0.097-0.663 0.662-1.167 1.344-1.167 0.046 0 0.092 0.002 0.137 0.007l-0.006-0h0.207c0.027-0.002 0.058-0.004 0.090-0.004 0.603 0 1.092 0.489 1.092 1.092 0 0.026-0.001 0.051-0.003 0.076l0-0.003v7.118l1.017 0.018c0.144-0.644 0.702-1.122 1.375-1.143l0.002-0h0.198c0.692 0.052 1.235 0.627 1.235 1.328 0 0.023-0.001 0.047-0.002 0.070l0-0.003v1.656l0.99 0.009c0.129-0.643 0.681-1.124 1.348-1.143l0.002-0h0.207c0.712 0.053 1.269 0.643 1.269 1.363 0 0.011-0 0.022-0 0.033l0-0.002v1.602l0.972 0.027c0.126-0.633 0.672-1.105 1.331-1.116h0.199c0.725 0.006 1.311 0.59 1.323 1.313v0.001zM3.339 8.117h-3.339v0.963h3.339v-0.963zM10.025 0h-0.954v3.348h0.954v-3.348zM6.146 4.868l-2.484-2.421-0.666 0.693 2.493 2.412zM16.234 9.080h3.348v-0.963h-3.348v0.963zM16.378 3.141l-0.666-0.693-2.484 2.421 0.666 0.684z"></path>
</svg>
