<!-- Generated by IcoMoon.io -->
<svg version="1.1" xmlns="http://www.w3.org/2000/svg" width="32" height="32" viewBox="0 0 32 32">
<title>Shape-163</title>
<path fill="#1ab798" d="M16.133-0.009h-0.133c-8.773 0.049-15.88 7.113-16 15.864l-0 0.011c-0.080 8.764 7.040 15.662 15.867 16.142h0.133c0.020 0 0.043 0 0.067 0 8.842 0 16.009-7.168 16.009-16.009 0-8.818-7.13-15.971-15.939-16.009h-0.004zM16 31.040h-0.124c-8.284-0.489-14.969-6.933-14.907-15.164 0.116-8.231 6.79-14.865 15.026-14.916l0.005-0h0.124c8.28 0.035 14.978 6.755 14.978 15.040 0 8.306-6.734 15.040-15.040 15.040-0.022 0-0.044-0-0.066-0h0.003zM23.093 8.311l-9.769 4.649c-0.1 0.048-0.179 0.125-0.23 0.22l-0.001 0.003-4.827 9.618c-0.035 0.063-0.055 0.138-0.055 0.218 0 0.131 0.055 0.25 0.144 0.333l0 0c0.085 0.093 0.207 0.151 0.343 0.151 0.001 0 0.003 0 0.004-0h-0c0 0 0.001 0 0.001 0 0.075 0 0.145-0.020 0.205-0.054l-0.002 0.001 9.769-4.631c0.095-0.051 0.171-0.127 0.221-0.219l0.001-0.003 4.836-9.627c0.034-0.064 0.054-0.14 0.054-0.22 0-0.133-0.055-0.253-0.143-0.339l-0-0c-0.088-0.088-0.21-0.143-0.345-0.143-0.075 0-0.145 0.017-0.209 0.047l0.003-0.001zM18.107 18.009l-8.338 3.956 4.124-8.204 8.338-3.956z"></path>
</svg>
