<!-- Generated by IcoMoon.io -->
<svg version="1.1" xmlns="http://www.w3.org/2000/svg" width="1024" height="1024" viewBox="0 0 1024 1024">
<title></title>
<g id="icomoon-ignore">
</g>
<path fill="#000" d="M138.942 333.9h-2.623c-33.626 0-61.043 27.504-61.043 61.043v265.772c0 33.671 27.417 61.086 61.043 61.086h2.668c33.626 0 61.043-27.504 61.043-61.086v-265.774c-0.045-33.537-27.504-61.041-61.088-61.041z"></path>
<path fill="#000" d="M229.239 763.3c0 30.871 25.23 56.014 56.101 56.014h59.951v143.556c0 33.713 27.504 61.13 61.043 61.13h2.623c33.671 0 61.13-27.46 61.13-61.13v-143.556h83.782v143.556c0 33.713 27.591 61.13 61.13 61.13h2.581c33.669 0 61.086-27.46 61.086-61.13v-143.556h59.993c30.827 0 56.059-25.143 56.059-56.014v-419.649h-565.479v419.649z"></path>
<path fill="#000" d="M652.822 89.16l47.62-73.504c3.061-4.636 1.705-10.975-2.974-13.993-4.634-3.061-10.975-1.792-13.993 2.974l-49.367 76.042c-37.036-15.173-78.402-23.699-122.087-23.699-43.727 0-85.006 8.526-122.129 23.699l-49.28-76.042c-3.016-4.766-9.402-6.035-14.081-2.974-4.679 3.016-6.035 9.357-2.974 13.993l47.662 73.504c-85.924 42.11-143.862 121.474-143.862 212.513 0 5.597 0.351 11.107 0.831 16.572h567.707c0.48-5.465 0.787-10.975 0.787-16.572 0.002-91.039-57.98-170.403-143.86-212.513zM380.403 220.778c-15.086 0-27.33-12.157-27.33-27.285s12.244-27.243 27.33-27.243c15.173 0 27.33 12.112 27.33 27.243s-12.244 27.285-27.33 27.285zM643.597 220.778c-15.086 0-27.33-12.157-27.33-27.285s12.244-27.243 27.33-27.243c15.129 0 27.285 12.112 27.285 27.243 0 15.129-12.157 27.285-27.285 27.285z"></path>
<path fill="#000" d="M887.636 333.9h-2.536c-33.626 0-61.13 27.504-61.13 61.043v265.772c0 33.671 27.549 61.086 61.13 61.086h2.581c33.669 0 61.043-27.504 61.043-61.086v-265.774c0-33.537-27.462-61.041-61.088-61.041z"></path>
</svg>
