<!-- Generated by IcoMoon.io -->
<svg version="1.1" xmlns="http://www.w3.org/2000/svg" width="1024" height="1024" viewBox="0 0 1024 1024">
<title></title>
<g id="icomoon-ignore">
</g>
<path fill="#000" d="M896 320c-35.2 0-64 28.8-64 64v256c0 35.202 28.8 64 64 64s64-28.798 64-64v-256c0-35.2-28.8-64-64-64zM128 320c-35.2 0-64 28.8-64 64v256c0 35.202 28.8 64 64 64s64-28.798 64-64v-256c0-35.2-28.802-64-64-64zM224 736c0 53.020 42.98 96 96 96h32v128c0 35.2 28.8 64 64 64s64-28.8 64-64v-128h64v128c0 35.2 28.8 64 64 64s64-28.8 64-64v-128h32c53.020 0 96-42.98 96-96v-352h-576v352zM630.598 89.494l40.504-77.806c2.036-3.902 0.5-8.758-3.402-10.79-3.898-2.032-8.758-0.5-10.79 3.402l-41.118 78.986c-32.198-12.448-67.194-19.286-103.792-19.286-36.596 0-71.592 6.838-103.796 19.286l-41.116-78.984c-2.032-3.902-6.886-5.434-10.79-3.402s-5.434 6.886-3.402 10.79l40.5 77.808c-90.63 41.018-156.24 127.584-167.62 230.504h572.438c-11.374-102.924-76.984-189.488-167.616-230.508zM384 270.4c-25.626 0-46.4-20.774-46.4-46.4s20.774-46.4 46.4-46.4 46.4 20.774 46.4 46.4c-0.002 25.626-20.774 46.4-46.4 46.4zM640 270.4c-25.624 0-46.402-20.774-46.402-46.4s20.778-46.4 46.402-46.4 46.398 20.774 46.398 46.4-20.774 46.4-46.398 46.4z"></path>
</svg>
