<!-- Generated by IcoMoon.io -->
<svg version="1.1" xmlns="http://www.w3.org/2000/svg" width="1024" height="1024" viewBox="0 0 1024 1024">
<title></title>
<g id="icomoon-ignore">
</g>
<path fill="#000" d="M136.773 376.426c-86.57 150.226-31.536 378.202 64.196 516.432 47.786 69.108 96.165 131.143 162.43 131.143 1.249 0 2.501-0.024 3.784-0.074 31.133-1.242 53.631-10.828 75.383-20.091 24.422-10.408 49.679-21.168 89.296-21.168 37.69 0 61.742 10.411 85.002 20.477 22.924 9.918 46.537 20.178 81.426 19.523 74.641-1.39 120.469-68.329 160.902-127.382 42.192-61.658 63.357-121.524 70.498-144.401l0.289-0.91c1.36-4.066-0.561-8.504-4.459-10.294-0.107-0.050-0.504-0.215-0.614-0.262-13.144-5.375-128.443-56.525-129.655-195.937-1.125-113.264 86.496-173.244 104.069-184.115l0.819-0.51c1.904-1.225 3.23-3.169 3.68-5.392 0.45-2.219-0.020-4.529-1.296-6.396-60.48-88.507-153.177-101.846-190.498-103.451-5.415-0.541-11.005-0.812-16.619-0.812-43.834 0-85.825 16.555-119.56 29.857-23.287 9.182-43.401 17.113-57.273 17.113-15.588 0-35.816-8.027-59.241-17.321-31.324-12.432-66.829-26.52-104.414-26.52-0.896 0-1.779 0.010-2.649 0.027-87.393 1.286-169.971 51.284-215.497 130.464z"></path>
<path fill="#000" d="M712.103 0.007c-52.922 2.155-116.407 34.732-154.352 79.177-32.248 37.358-63.75 99.644-55.45 162.427 0.52 3.928 3.717 6.96 7.668 7.265 3.572 0.279 7.218 0.42 10.851 0.423 51.747 0 107.57-28.628 145.693-74.725 40.124-48.675 60.413-111.143 54.275-167.097-0.483-4.385-4.341-7.641-8.686-7.47z"></path>
</svg>
