<!-- Generated by IcoMoon.io -->
<svg version="1.1" xmlns="http://www.w3.org/2000/svg" width="1024" height="1024" viewBox="0 0 1024 1024">
<title></title>
<g id="icomoon-ignore">
</g>
<path fill="#000" d="M729.278 816.413c8.668-8.971 8.668-23.418 0-32.066-8.971-8.971-23.418-8.971-32.066 0l-162.591 162.288v-536.246c0-12.507-9.941-22.771-22.448-22.771s-22.771 10.264-22.771 22.771v536.226l-162.268-162.288c-8.971-8.971-23.095-8.971-32.066 0-8.668 8.668-8.668 23.095 0 32.066l201.082 201.082c8.668 8.668 23.095 8.668 32.066 0l201.062-201.062zM443.536 655.094c12.184 0 22.448 9.941 22.448 22.448s-10.264 22.771-22.448 22.771h-216.479c-62.535 0-119.292-25.337-160.349-66.697-41.36-41.057-66.697-97.813-66.697-160.349s25.337-119.312 66.697-160.349c41.057-41.057 97.813-66.718 160.349-66.718 15.073 0 30.146 1.596 44.896 4.809 8.345 1.596 16.346 3.536 24.044 6.102 24.044-41.38 58.373-76.012 99.107-101.349 44.896-27.903 97.813-43.946 154.57-43.946 77.608 0 148.488 30.469 201.082 79.851 47.462 44.573 79.851 104.239 89.792 171.583 4.809-0.647 9.941-0.647 14.75-0.647 46.492 0 88.842 18.912 119.292 49.382 30.793 30.469 49.382 72.799 49.382 119.312 0 46.815-18.609 88.842-49.382 119.615-30.469 30.469-72.799 49.382-119.292 49.382h-274.508c-12.507 0-22.448-10.264-22.448-22.771s9.941-22.448 22.448-22.448h274.528c33.985 0 65.101-13.8 87.226-36.248 22.448-22.448 36.248-53.241 36.248-87.549 0-33.985-13.8-65.101-36.248-87.226-22.125-22.448-53.241-36.248-87.226-36.248-5.132 0-10.264 0.323-14.75 0.97-4.809 0.323-9.618 1.273-13.8 2.243-1.596 0.323-3.213 0.647-4.809 0.97-12.507 0.647-23.095-8.971-24.044-21.478-3.839-65.101-33.036-123.797-77.931-165.804-44.573-42.007-104.542-67.667-170.29-67.667-48.109 0-93.005 13.8-130.849 37.198-39.441 24.044-71.203 59.019-92.035 100.703v0c-5.455 10.588-17.962 15.396-29.176 10.911-10.911-4.809-22.448-8.345-34.308-10.911-11.537-2.243-23.418-3.536-36.248-3.536-50.351 0-95.571 20.528-128.606 53.241-32.712 33.036-53.241 78.578-53.241 128.606 0 50.351 20.528 95.571 53.241 128.606 33.036 32.712 78.255 53.241 128.606 53.241h216.458z"></path>
</svg>
