<!-- Generated by IcoMoon.io -->
<svg version="1.1" xmlns="http://www.w3.org/2000/svg" width="1024" height="1024" viewBox="0 0 1024 1024">
<title></title>
<g id="icomoon-ignore">
</g>
<path fill="#000" d="M589.218 651.975c-10.865-14.575-22.864-28.117-35.995-40.612-13.128-12.51-26.259-23.899-39.381-34.152-13.131-10.253-25.129-20.107-35.999-29.548-10.867-9.428-19.689-19.28-26.457-29.533s-10.154-20.713-10.154-31.378c0-14.775 4.72-28.619 14.154-41.543s20.922-25.431 34.456-37.54c13.536-12.107 27.069-25.332 40.616-39.691 13.527-14.366 25.011-33.333 34.454-56.928 9.425-23.588 14.146-50.561 14.146-80.917 0-36.102-8.003-70.772-24.002-103.997-15.999-33.232-38.56-59.083-67.689-77.542h83.068l83.075-48.617h-268.902c-38.148 0-76.511 4.108-115.062 12.329-57.016 12.717-105.016 41.745-143.992 87.071-38.969 45.334-58.458 96.718-58.458 154.152 0 60.719 21.851 111.181 65.536 151.378 43.687 40.196 96.097 60.303 157.224 60.303 12.307 0 26.664-1.030 43.075-3.076-0.821 3.278-2.248 7.688-4.304 13.225s-3.696 9.958-4.927 13.234c-1.229 3.278-2.257 7.274-3.071 11.997-0.823 4.72-1.231 9.544-1.231 14.463 0 27.078 13.118 57.643 39.381 91.692-31.177 0.834-61.939 3.599-92.304 8.32-30.356 4.72-62.146 12.105-95.38 22.157-33.229 10.046-62.974 24.614-89.224 43.689-26.257 19.084-45.946 41.741-59.074 68-15.18 30.361-22.774 58.048-22.774 83.077 0 27.483 6.158 52.406 18.461 74.77 12.303 22.349 28.095 40.612 47.379 54.759 19.28 14.161 41.54 26.043 66.769 35.697 25.226 9.635 50.252 16.508 75.069 20.61 24.821 4.102 49.332 6.151 73.539 6.151 109.939 0 196.098-26.865 258.449-80.604 57.436-50.054 86.152-107.902 86.152-173.544 0-23.397-3.384-45.228-10.156-65.543-6.77-20.327-15.585-37.749-26.466-52.311zM351.996 428.299c-20.922 0-40.816-5.335-59.691-16.006-18.875-10.669-34.874-24.515-48-41.54-13.122-17.023-24.61-36.202-34.458-57.538-9.844-21.33-17.122-42.659-21.845-63.997-4.72-21.327-7.078-41.637-7.078-60.922 0-39.381 10.462-73.227 31.387-101.535 20.918-28.309 50.459-42.463 88.612-42.463 27.078 0 51.589 8.404 73.537 25.226 21.948 16.821 39.178 38.152 51.694 63.997 12.505 25.845 22.151 52.606 28.919 80.303 6.768 27.69 10.154 53.848 10.154 78.462 0 41.030-8.921 73.966-26.768 98.787-17.851 24.815-46.666 37.225-86.463 37.225zM522.141 890.413c-11.273 19.288-26.552 34.357-45.838 45.222-19.282 10.88-39.894 18.877-61.844 24.011-21.948 5.141-45.024 7.699-69.231 7.699-26.257 0-52.311-3.084-78.149-9.234-25.843-6.145-50.563-15.491-74.151-28-23.588-12.501-42.666-29.74-57.227-51.69-14.564-21.95-21.845-46.866-21.845-74.77 0-24.612 5.535-46.558 16.614-65.847 11.083-19.28 25.237-34.667 42.465-46.142 17.23-11.492 37.329-20.935 60.305-28.302 22.976-7.399 45.127-12.518 66.457-15.387 21.327-2.877 43.075-4.3 65.226-4.3 13.542 0 23.802 0.412 30.772 1.222 2.464 1.653 8.714 5.947 18.769 12.924s16.821 11.699 20.31 14.161c3.481 2.451 9.844 7.169 19.075 14.146 9.227 6.977 15.792 12.202 19.689 15.689 3.886 3.487 9.529 8.718 16.918 15.689 7.38 6.977 12.82 13.025 16.308 18.153 3.481 5.125 7.794 11.38 12.924 18.756 5.13 7.399 8.714 14.473 10.773 21.241 2.043 6.772 3.996 14.154 5.835 22.151 1.843 8.018 2.765 16.314 2.765 24.938 0.011 25.836-5.632 48.401-16.918 67.672z"></path>
<path fill="#000" d="M866.455 157.513v-157.534h-78.777v157.534h-157.538v78.772h157.538v157.534h78.777v-157.534h157.521v-78.772z"></path>
</svg>
